<?xml version="1.0" standalone="no"?>
<!DOCTYPE svg PUBLIC "-//W3C//DTD SVG 20010904//EN"
 "http://www.w3.org/TR/2001/REC-SVG-20010904/DTD/svg10.dtd">
<svg version="1.0" xmlns="http://www.w3.org/2000/svg"
 width="300.000000pt" height="300.000000pt" viewBox="0 0 300.000000 300.000000"
 preserveAspectRatio="xMidYMid meet">
<metadata>
Created by potrace 1.11, written by Peter Selinger 2001-2013
</metadata>
<g transform="translate(0.000000,300.000000) scale(0.100000,-0.100000)"
fill="#000000" stroke="none">
<path d="M128 2923 c-14 -9 -31 -27 -37 -40 -8 -17 -11 -435 -11 -1384 0
-1479 -3 -1401 55 -1427 20 -9 284 -12 1107 -12 1251 1 1148 -8 1194 97 37 84
31 69 172 428 72 182 183 462 246 623 l116 293 -64 162 c-35 89 -135 340 -221
557 -295 745 -268 683 -305 702 -31 16 -114 17 -1129 17 -1006 1 -1098 -1
-1123 -16z"/>
</g>
</svg>
